<svg width="57" height="57" viewBox="0 0 57 57" fill="none" xmlns="http://www.w3.org/2000/svg">
<path d="M56.69 0H0V56.69H56.69V0Z" fill="white"/>
<path d="M24.0702 16.14L28.3502 11.86L32.6302 16.14L35.0002 13.77L30.7202 9.48997L35.0002 5.20997L32.6302 2.83997L28.3502 7.11997L24.0702 2.83997L21.7002 5.20997L25.9802 9.48997L21.7002 13.77L24.0702 16.14Z" fill="black"/>
<path d="M24.0702 31.9L28.3502 27.62L32.6302 31.9L35.0002 29.53L30.7202 25.25L35.0002 20.97L32.6302 18.6L28.3502 22.88L24.0702 18.6L21.7002 20.97L25.9802 25.25L21.7002 29.53L24.0702 31.9Z" fill="black"/>
<path d="M24.0702 53.83L28.3502 49.55L32.6302 53.83L35.0002 51.46L30.7202 47.18L35.0002 42.9L32.6302 40.53L28.3502 44.81L24.0702 40.53L21.7002 42.9L25.9802 47.18L21.7002 51.46L24.0702 53.83Z" fill="black"/>
<path d="M41.2304 16.0799L36.3004 16.3099C36.3004 16.3099 37.0004 21.5099 36.7104 26.7599C36.4204 31.7799 35.6304 32.6599 35.6304 32.6599C34.5204 34.7499 31.0704 35.2599 29.3104 35.3899C27.5404 35.5299 26.7504 35.4299 26.7504 35.4299C26.7504 35.4299 21.6704 35.2299 20.5304 32.8699C19.8804 31.5199 19.7404 28.8699 19.7404 28.8699C19.7404 28.8699 19.7104 16.4599 19.6604 16.1799C19.6304 16.0299 18.6304 16.2899 17.4704 16.2799C16.5304 16.2799 15.1504 16.2199 15.1504 16.2199L15.5604 25.3299L15.5004 30.7199C15.5004 30.7199 15.5004 33.6099 16.2404 34.7599C17.4904 36.7199 18.8804 37.4199 19.6704 37.7899C20.4604 38.1699 21.7104 38.5399 23.1104 38.8199C24.5004 39.0999 26.8304 39.2399 29.8904 38.4599C32.9604 37.6699 34.3104 36.2799 34.3104 36.2799L36.6304 34.0999V39.2599L41.5004 37.8199C41.5004 37.8199 40.8604 33.7299 40.8604 26.7599C40.8604 19.7899 41.2004 16.0699 41.2004 16.0699" fill="black"/>
</svg>
