<svg width="320" height="72" viewBox="0 0 320 72" fill="none" xmlns="http://www.w3.org/2000/svg">
<g clip-path="url(#clip0_546_122)">
<path d="M56.69 0H0V56.69H56.69V0Z" fill="black"/>
<path d="M24.0702 16.14L28.3502 11.86L32.6302 16.14L35.0002 13.77L30.7202 9.48997L35.0002 5.20997L32.6302 2.83997L28.3502 7.11997L24.0702 2.83997L21.7002 5.20997L25.9802 9.48997L21.7002 13.77L24.0702 16.14Z" fill="white"/>
<path d="M24.0702 31.9L28.3502 27.62L32.6302 31.9L35.0002 29.53L30.7202 25.25L35.0002 20.97L32.6302 18.6L28.3502 22.88L24.0702 18.6L21.7002 20.97L25.9802 25.25L21.7002 29.53L24.0702 31.9Z" fill="white"/>
<path d="M24.0702 53.83L28.3502 49.55L32.6302 53.83L35.0002 51.46L30.7202 47.18L35.0002 42.9L32.6302 40.53L28.3502 44.81L24.0702 40.53L21.7002 42.9L25.9802 47.18L21.7002 51.46L24.0702 53.83Z" fill="white"/>
<path d="M41.2304 16.0799L36.3004 16.3099C36.3004 16.3099 37.0004 21.5099 36.7104 26.7599C36.4204 31.7799 35.6304 32.6599 35.6304 32.6599C34.5204 34.7499 31.0704 35.2599 29.3104 35.3899C27.5404 35.5299 26.7504 35.4299 26.7504 35.4299C26.7504 35.4299 21.6704 35.2299 20.5304 32.8699C19.8804 31.5199 19.7404 28.8699 19.7404 28.8699C19.7404 28.8699 19.7104 16.4599 19.6604 16.1799C19.6304 16.0299 18.6304 16.2899 17.4704 16.2799C16.5304 16.2799 15.1504 16.2199 15.1504 16.2199L15.5604 25.3299L15.5004 30.7199C15.5004 30.7199 15.5004 33.6099 16.2404 34.7599C17.4904 36.7199 18.8804 37.4199 19.6704 37.7899C20.4604 38.1699 21.7104 38.5399 23.1104 38.8199C24.5004 39.0999 26.8304 39.2399 29.8904 38.4599C32.9604 37.6699 34.3104 36.2799 34.3104 36.2799L36.6304 34.0999V39.2599L41.5004 37.8199C41.5004 37.8199 40.8604 33.7299 40.8604 26.7599C40.8604 19.7899 41.2004 16.0699 41.2004 16.0699" fill="white"/>
<path d="M75.0901 5.29003C75.0901 2.20003 73.2101 2.20003 71.0601 2.20003L70.8701 2.04003V1.38003C70.8701 0.950034 71.1401 0.910034 71.5701 0.910034C72.5901 0.910034 75.0901 1.11003 76.9301 1.11003C78.8801 1.11003 80.8701 0.910034 82.8301 0.910034L82.9501 1.03003V2.04003L82.7601 2.20003H82.2901C79.7501 2.20003 78.6101 2.47003 78.6101 5.41003V16.75C78.6101 22.38 79.7101 26.8 86.4301 26.8C93.1501 26.8 95.7001 23.43 95.7001 16.83V6.66003C95.7001 2.20003 95.7001 2.51003 92.2601 2.20003L92.1001 1.89003V1.15003L92.2201 0.920034C92.9201 0.920034 93.7001 1.12003 96.6401 1.12003C98.2901 1.12003 100.36 0.920034 101.61 0.920034L101.77 1.15003V1.97003L101.53 2.21003C98.6801 2.21003 97.6601 2.37003 97.6601 4.32003V18.28C97.6601 25.44 93.4801 29.07 86.3601 29.07C80.6901 29.07 75.1001 27.08 75.1001 20.55V5.29003H75.0901Z" fill="black"/>
<path d="M103.99 11.39C103.99 10.8 103.96 10.65 103.84 10.42C103.58 9.92003 102.29 8.87003 101.79 8.83003L100.24 8.74003C100.12 8.74003 100.09 8.45003 100.09 8.22003C100.09 8.07003 100.09 7.84003 100.24 7.84003C101.15 7.84003 101.85 7.78003 102.58 7.78003C103.93 7.78003 106.07 7.90003 106.6 7.96003L115.48 18.68C116.83 20.32 118.15 21.84 120.26 23.96H120.38V11.07C120.38 9.14003 119.68 8.84003 118.74 8.81003L117.48 8.75003C117.36 8.75003 117.3 8.46003 117.3 8.26003C117.3 8.08003 117.39 7.79003 117.57 7.79003C118.21 7.79003 119.74 7.94003 121.17 7.94003C122.49 7.94003 123.9 7.79003 124.72 7.79003C124.87 7.79003 124.9 7.91003 124.9 8.03003V8.58003C124.9 8.72003 124.84 8.76003 124.64 8.76003H123.88C121.86 8.76003 121.86 9.79003 121.86 12.28V29.25H121.16L105.34 11.17V24.62C105.34 27.14 105.69 27.43 108.21 27.52C108.33 27.52 108.42 27.78 108.42 28.01C108.42 28.24 108.39 28.48 108.3 28.48C107.74 28.48 105.87 28.33 104.64 28.33C103.2 28.33 102.56 28.48 101.21 28.48C101.03 28.48 101 28.28 101 27.9C101 27.63 101.03 27.52 101.38 27.52C102.61 27.52 104.01 27.23 104.01 25.73V11.4L103.99 11.39Z" fill="black"/>
<path d="M132.57 23.05C132.57 27.33 132.66 27.35 135.53 27.51L135.68 27.72V28.27C135.68 28.45 135.24 28.47 134.98 28.47C134.57 28.47 132.61 28.32 131.41 28.32C130 28.32 128.57 28.47 127.04 28.47C126.92 28.41 126.89 28.24 126.89 27.94C126.92 27.56 126.98 27.5 127.83 27.5C129.85 27.5 129.94 27.06 129.94 24.83V10.83C129.94 9.16004 129.44 8.75004 126.98 8.75004L126.89 8.61004L126.83 8.14004C126.86 7.82004 127.12 7.79004 127.3 7.79004C128.09 7.79004 129.03 7.94004 131.02 7.94004C132.48 7.94004 134.25 7.79004 135.41 7.79004L135.56 8.00004V8.52004L135.44 8.70004L134.65 8.76004C133.48 8.85004 132.57 8.97004 132.57 10.31V23.06V23.05Z" fill="black"/>
<path d="M139.61 9.74C139.29 8.95 138.12 8.74 137.29 8.74L137.11 8.6V7.84L137.43 7.78C138.66 7.78 140.45 7.93 141.09 7.93C142.43 7.93 143.75 7.78 145.1 7.78L145.19 7.87L145.1 8.69L143.72 8.81C143.25 8.83 142.72 9.01 142.72 9.45C142.72 9.69 142.87 10.07 142.98 10.33L146.35 19.12L148.26 23.48C148.46 23.92 148.49 24.01 148.58 24.01C148.64 24.01 148.72 23.89 148.84 23.55L153.03 12.44C153.5 11.18 153.85 10.09 153.82 9.74C153.79 9.24 153.64 8.98 152.8 8.9L151.28 8.75L151.1 8.66V7.75C152.24 7.75 153.38 7.92 154.53 7.92C155.44 7.92 157.37 7.75 157.58 7.75L157.81 7.87V8.54L157.55 8.74L156.64 8.8C156.05 8.82 155.82 9.12 155.41 10.15C152.63 16.86 151.95 18.97 149.73 24.62L148.24 28.43C148.1 28.84 148.04 28.87 147.83 28.87C147.56 28.87 147.51 28.78 147.45 28.67L139.6 9.74H139.61Z" fill="black"/>
<path d="M162.53 10.77C162.53 8.87003 161.09 8.66003 159.39 8.66003C159.27 8.66003 159.27 8.51003 159.27 8.39003V8.07003C159.27 7.81003 159.77 7.78003 160.79 7.78003C161.96 7.78003 163.28 7.93003 164.51 7.93003C165.68 7.93003 166.85 7.78003 168.03 7.78003H174.21C174.44 7.78003 174.47 8.05003 174.47 8.37003V11.95C174.47 12.07 174.41 12.18 174.27 12.18C174.04 12.18 173.57 12.21 173.54 11.86L173.45 10.95C173.27 9.08003 171.98 8.75003 170.34 8.75003H167.32C165.68 8.75003 165.15 9.10003 165.15 11.33V16.63C165.15 16.72 165.33 16.86 165.38 16.86L168.84 16.74C170.6 16.68 171.1 16.12 171.54 14.57C171.6 14.4 171.69 14.34 172.01 14.34C172.22 14.34 172.37 14.37 172.37 14.52C172.37 15.14 172.19 16.48 172.19 17.45C172.19 19.03 172.37 19.88 172.37 20.37C172.37 20.55 172.07 20.73 171.9 20.73C171.67 20.73 171.46 20.64 171.4 20.35C171.25 19.56 171.25 19 171.11 18.59C170.96 18.15 170.61 17.95 169.73 17.92L165.57 17.83C165.16 17.83 165.16 17.98 165.16 18.18V25.16C165.16 27.27 166.72 27.32 168.74 27.32H170.32C171.87 27.32 172.96 27.29 173.69 26.86C174.33 26.47 175.24 24.69 175.56 23.96C175.94 23.96 176.44 24.05 176.44 24.25C176.44 24.34 176.36 24.57 176.29 24.72L175.47 27.68C175.24 28.47 175.09 28.47 174.71 28.47C171.55 28.47 168.44 28.32 164.19 28.32C163.22 28.32 160.76 28.47 159.27 28.47C159.18 28.47 159.09 28.18 159.09 28C159.09 27.77 159.15 27.51 159.27 27.51C161.83 27.39 162.52 27.13 162.52 24.43V10.77H162.53Z" fill="black"/>
<path d="M181.85 10.94C181.85 9.48002 181.79 8.74002 179.95 8.74002H178.75C178.57 8.74002 178.55 8.42002 178.55 8.18002C178.55 8.04002 178.64 7.77002 178.75 7.77002C180.45 7.77002 182.18 7.86002 183.88 7.86002C185.23 7.86002 186.55 7.77002 187.89 7.77002C190.88 7.77002 193.81 9.76002 193.81 12.84C193.81 15.5 191.38 17.29 189.09 17.65V17.71C190.23 17.98 191.43 20.12 191.73 20.58L194.95 25.51C195.98 27.06 196.65 27.35 198.41 27.44L198.59 27.61V28.16C198.59 28.43 198.38 28.45 198.27 28.45C197.66 28.45 196.75 28.36 196.31 28.36C195.61 28.36 194.9 28.45 194.2 28.45C193.5 28.45 192.21 26.49 190.48 23.41C188.58 20.04 187.46 18.2 185.53 18.2C185.29 18.2 184.94 18.2 184.5 18.26V25.45C184.5 26.5 184.5 27.5 185.97 27.5C187.08 27.5 187.58 27.5 187.58 27.73C187.58 28.29 187.49 28.46 187.05 28.46C185.53 28.46 184.27 28.31 183.01 28.31C182.51 28.31 179.26 28.46 178.85 28.46C178.67 28.46 178.62 28.08 178.62 27.84C178.62 27.58 178.74 27.52 179.33 27.49C181.35 27.4 181.87 27.11 181.87 25.09V10.94H181.85ZM184.49 17.19C184.87 17.22 185.22 17.25 185.6 17.25C187.95 17.25 190.88 16.43 190.88 12.97C190.88 10.39 189.12 8.72002 186.54 8.72002C184.55 8.72002 184.49 9.19002 184.49 10.07V17.19Z" fill="black"/>
<path d="M203.22 17.8C201.11 16.54 200.26 15.37 200.26 13.08C200.26 9.42 203.25 7.37 207.2 7.37C208.31 7.37 209.9 7.74999 210.89 8.18999L211.09 11.85V12C211.09 12.15 210.8 12.21 210.39 12.21C210.01 12.21 209.95 12.03 209.92 11.74C209.71 9.77999 208.31 8.52 206.22 8.52C204.13 8.52 202.68 9.92 202.68 11.81C202.68 13.92 203.96 14.74 206.89 16.29C209.79 17.82 212.31 19.16 212.31 22.83C212.31 26.81 208.71 28.89 205.04 28.89C203.84 28.89 201.84 28.51 200.73 28.04C200.5 27.92 200.41 27.54 200.32 26.9L199.97 24.14C199.97 23.96 200.56 23.96 200.73 23.96C200.82 23.96 200.91 24.02 200.96 24.22C201.63 26.45 203.16 27.74 205.5 27.74C207.55 27.74 209.51 25.95 209.51 23.96C209.51 21.97 208.43 20.91 206.9 20L203.18 17.8H203.22Z" fill="black"/>
<path d="M220.51 23.05C220.51 27.33 220.6 27.35 223.47 27.51L223.62 27.72V28.27C223.62 28.45 223.18 28.47 222.91 28.47C222.5 28.47 220.54 28.32 219.34 28.32C217.93 28.32 216.5 28.47 214.98 28.47C214.86 28.41 214.83 28.24 214.83 27.94C214.86 27.56 214.92 27.5 215.77 27.5C217.8 27.5 217.88 27.06 217.88 24.83V10.83C217.88 9.16004 217.38 8.75004 214.92 8.75004L214.83 8.61004L214.77 8.14004C214.8 7.82004 215.06 7.79004 215.24 7.79004C216.03 7.79004 216.97 7.94004 218.96 7.94004C220.43 7.94004 222.18 7.79004 223.36 7.79004L223.5 8.00004V8.52004L223.39 8.70004L222.59 8.76004C221.42 8.85004 220.51 8.97004 220.51 10.31V23.06V23.05Z" fill="black"/>
<path d="M236.07 25.34C236.07 27.5 237.54 27.5 239.35 27.5L239.53 27.65V28.12C239.53 28.47 239.38 28.47 238.91 28.47C238.33 28.47 236.89 28.32 234.84 28.32C233.23 28.32 230.71 28.47 230 28.47C229.94 28.27 229.88 28.12 229.88 27.94C229.88 27.85 229.91 27.68 230 27.62L230.3 27.5H230.65C233.32 27.5 233.43 26.59 233.43 24.16V10.27L233.34 8.92H229.41C227.18 8.92 226.83 10.32 226.27 12.2C226.21 12.37 226.09 12.46 225.92 12.46C225.51 12.46 225.24 12.34 225.24 12.17C225.24 11.67 225.6 8.95 225.6 6.63C225.6 6.51 226.01 6.51 226.42 6.51C227.36 7.77 227.65 7.77 228.92 7.77H239.82C241.87 7.77 242.46 7.15 243.19 6.25C243.39 6.25 244.07 6.25 244.07 6.51C244.07 6.75 243.49 9.15 243.43 11.26C243.43 11.58 243.34 12.2 243.2 12.2C242.94 12.2 242.26 12.05 242.26 11.9L242.14 10.44C242.03 8.95 241.32 8.92 240.12 8.92H236.07V25.33V25.34Z" fill="black"/>
<path d="M254.12 19.15C254.12 18.85 254.09 18.47 253.77 18L247.16 9.05999C246.98 8.78999 246.72 8.64999 246.04 8.61999L244.92 8.55999L244.74 8.46999V7.69999L244.92 7.60999H245.27C245.77 7.60999 248.93 7.75999 249.49 7.75999C250.23 7.75999 251.41 7.60999 252.38 7.60999C253.03 7.60999 253.32 7.60999 253.32 7.78999V8.14998C253.32 8.43998 253.23 8.58999 253.14 8.58999L251.43 8.64998C251.01 8.64998 250.75 8.81998 250.75 9.14998C250.75 9.26998 250.92 9.55998 251.23 9.93998L255.45 15.82C255.69 16.15 255.95 16.44 256.25 16.71C256.81 16.17 259.41 12.6 260.68 10.75C261.15 10.07 261.42 9.50999 261.42 9.26999C261.42 8.85999 261.18 8.67998 260.32 8.64998L258.84 8.58999C258.84 8.58999 258.84 8.14998 258.84 8.02998C258.84 7.87998 258.87 7.70999 259.02 7.61999C260.17 7.73999 261.58 7.76999 262.85 7.76999C263.71 7.76999 265 7.61999 265.39 7.61999L265.57 7.73998V8.41999L265.45 8.53999L264.36 8.59999C263.42 8.65999 262.24 10.66 261.67 11.43L256.78 18.13V25.06C256.78 25.68 256.81 26.22 256.87 26.39C257.11 27.09 257.87 27.48 258.97 27.48H259.77L260.03 27.6V28.42L259.88 28.45H259.44C258.14 28.45 256.88 28.3 255.58 28.3C254.28 28.3 252.89 28.45 251.57 28.45H251.15L250.91 28.39V27.89C250.91 27.72 250.97 27.51 251.2 27.48L252.59 27.33C253.45 27.24 254.13 26.95 254.13 25.47V19.15H254.12Z" fill="black"/>
<path d="M129.15 59.9401L127.43 65.5001C127.12 66.5201 126.96 67.4201 126.96 68.0501C126.96 69.3401 128.8 69.6201 129.86 69.6201C130.21 69.6201 130.29 69.8501 130.29 70.3701C130.29 70.7601 130.25 70.9201 129.97 70.9201C129.07 70.9201 126.21 70.7201 125.15 70.7201C124.09 70.7201 122.45 70.9201 121.27 70.9201C120.49 70.9201 120.49 70.8001 120.49 70.2901V69.8601C120.49 69.6701 120.84 69.5901 121.78 69.5101C123.82 69.3101 124.1 68.9201 124.84 66.7601L132.6 44.1901C133.38 43.5301 134.2 42.6201 135.18 42.3101L145.02 67.1201C145.68 68.7701 146.39 69.5901 148.66 69.5901C149.09 69.5901 149.17 70.0601 149.17 70.4901C149.17 70.9201 148.9 70.9301 148.43 70.9301C147.79 70.9301 145.29 70.7301 143.76 70.7301C142.23 70.7301 140.62 70.8101 139.06 70.9301C138.47 70.9301 138.43 70.8101 138.43 70.2601C138.43 69.8301 138.66 69.6301 139.22 69.6301C139.81 69.6301 141.73 69.5101 141.73 68.5701C141.73 68.2601 141.57 67.6301 141.02 66.2601L138.51 59.9501H129.14L129.15 59.9401ZM137.82 58.4101L133.47 47.2001H133.39L129.67 58.4101H137.82Z" fill="black"/>
<path d="M72.0195 60.78C72.0195 54.66 77.2595 49.65 83.3195 49.65C89.3795 49.65 94.9395 53.87 94.9395 59.96C94.9395 66.05 89.2595 71.15 83.4295 71.15C77.5995 71.15 72.0195 67.17 72.0195 60.78ZM91.8095 60.55C91.8095 55.63 88.4395 50.62 83.1695 50.62C77.8995 50.62 75.1495 54.87 75.1495 59.81C75.1495 64.75 78.1895 70.01 83.6395 70.01C89.0895 70.01 91.8095 65.59 91.8095 60.55Z" fill="black"/>
<path d="M98.53 53.3499C98.53 51.5699 98.24 51.1799 96.51 51.1799H96.01C95.49 51.2099 95.25 51.1199 95.25 50.9399C95.25 50.7099 95.25 50.2099 95.58 50.2099H107.58C108.57 50.2099 109.57 50.0699 110.6 50.0699C110.77 50.0699 111.01 50.0999 111.01 50.3299L111.13 53.6299C111.13 53.8299 111.16 54.0399 111.16 54.2499C111.16 54.3699 110.93 54.4199 110.63 54.4199H110.19C110.13 54.0699 110.07 53.7199 109.99 53.3999L109.73 52.4899C109.41 51.3399 108.56 51.1699 107.65 51.1699H103.55C101.38 51.1699 101.18 51.8399 101.18 53.9799V59.1299H105.52C108.03 59.1299 108.65 58.4299 108.65 56.8199C108.94 56.7599 109.24 56.6699 109.44 56.6699C109.56 56.6699 109.62 56.7299 109.62 56.8799C109.62 57.1099 109.5 57.5499 109.5 59.6899C109.5 60.5399 109.62 62.0599 109.62 62.7099C109.62 62.9699 109.42 63.0899 109.09 63.0899C108.86 63.0899 108.77 62.8299 108.65 62.3599C108.45 61.1599 107.86 60.0999 105.37 60.0999H101.18V67.7799C101.18 68.9199 101.33 69.54 102.83 69.66L104.35 69.7799C104.49 69.7799 104.55 69.96 104.55 70.16C104.55 70.4 104.55 70.7499 104.23 70.7499C102.03 70.7499 101.1 70.6099 99.72 70.6099C98.52 70.6099 96.35 70.7499 95.57 70.7499C95.33 70.7499 95.33 70.4599 95.33 70.2299C95.33 70.0499 95.36 69.7899 95.48 69.7899L96.77 69.6999C98.32 69.5799 98.55 69.2299 98.55 67.4999V53.3499H98.53Z" fill="black"/>
<path d="M170.34 50.14C171.25 50.14 172.19 50.22 173.13 50.22C173.87 50.22 174.63 50.14 175.36 50.14C175.8 50.14 175.89 50.25 175.89 50.35V50.82C175.89 51.03 175.8 51.17 175.68 51.17C175.48 51.17 175.16 51.11 174.8 51.11C173.09 51.11 173.09 51.96 173.09 53.88C173.09 55.55 173.42 66.55 173.42 68.17C173.42 68.99 173.83 69.93 175.1 69.93C176.28 69.93 176.42 69.99 176.42 70.25C176.42 70.6 176.25 70.9 176.16 70.9C174.6 70.9 173.37 70.75 172.13 70.75C170.89 70.75 169.63 70.9 168.37 70.9C168.16 70.9 168.14 70.78 168.14 70.61V70.31C168.14 70.02 168.41 69.93 169.76 69.93C170.35 69.93 170.88 69.22 170.88 68.2C170.88 65.03 170.76 58.18 170.65 53.15C170.53 53.12 170.56 53.12 170.56 53.12C168.92 56.5 166.77 61.41 165.77 64.03L163 71.29C162.98 71.38 162.89 71.46 162.74 71.46C162.6 71.46 162.48 71.31 162.39 70.9C162.22 70.16 161.95 69.46 161.65 68.75L156.1 55.23C155.89 54.73 155.72 54.38 155.61 54.38C155.49 54.38 155.49 54.97 155.49 55.29C155.49 57.61 155.14 66.49 155.14 67.93C155.14 69.19 155.14 69.93 157.73 69.93C157.9 69.93 157.93 70.07 157.93 70.43C157.93 70.55 157.9 70.9 157.78 70.9C157.37 70.9 155.93 70.75 154.34 70.75C152.67 70.75 151.02 70.9 150.61 70.9C150.52 70.9 150.43 70.81 150.43 70.66V70.22C150.43 69.96 150.67 69.93 151.02 69.93C153.43 69.93 153.78 69.19 153.78 66.64C153.78 65.2 154.28 54.38 154.28 53.32C154.28 51.76 153.52 51.12 150.88 51.12C150.79 51.12 150.73 50.98 150.73 50.8V50.42C150.73 50.27 150.82 50.16 150.97 50.16C152.09 50.16 153.15 50.31 154.32 50.31C155.05 50.31 155.82 50.16 156.56 50.16C156.77 50.16 156.97 50.63 157.12 51.01L163.47 66.21H163.61L170.38 50.16L170.34 50.14Z" fill="black"/>
<path d="M180.97 60.2C178.85 58.93 177.99 57.76 177.99 55.47C177.99 51.79 180.99 49.74 184.96 49.74C186.08 49.74 187.67 50.12 188.67 50.56L188.88 54.24V54.39C188.88 54.54 188.58 54.59 188.17 54.59C187.79 54.59 187.73 54.42 187.7 54.12C187.49 52.15 186.08 50.88 183.99 50.88C181.9 50.88 180.44 52.29 180.44 54.18C180.44 56.29 181.73 57.12 184.67 58.68C187.58 60.21 190.11 61.56 190.11 65.23C190.11 69.23 186.49 71.31 182.82 71.31C181.61 71.31 179.61 70.93 178.5 70.46C178.27 70.34 178.18 69.96 178.09 69.31L177.74 66.55C177.74 66.37 178.33 66.37 178.51 66.37C178.6 66.37 178.69 66.43 178.74 66.63C179.42 68.86 180.95 70.16 183.3 70.16C185.36 70.16 187.33 68.37 187.33 66.37C187.33 64.37 186.25 63.31 184.72 62.4L180.99 60.19L180.97 60.2Z" fill="black"/>
<path d="M202.38 67.8299C202.38 70.0099 203.85 70.0099 205.67 70.0099L205.85 70.1499V70.6199C205.85 70.9799 205.7 70.9799 205.23 70.9799C204.64 70.9799 203.21 70.8299 201.15 70.8299C199.53 70.8299 197 70.9799 196.3 70.9799C196.24 70.7699 196.18 70.6199 196.18 70.4499C196.18 70.3599 196.21 70.1799 196.3 70.1199L196.6 69.9999H196.95C199.63 69.9999 199.74 69.0899 199.74 66.6499V52.7099L199.65 51.3599H195.71C193.47 51.3599 193.12 52.7699 192.56 54.6499C192.5 54.8299 192.38 54.9199 192.21 54.9199C191.79 54.9199 191.54 54.7999 191.54 54.6299C191.54 54.1299 191.89 51.3999 191.89 49.0699C191.89 48.9499 192.3 48.9499 192.71 48.9499C193.65 50.2199 193.94 50.2199 195.21 50.2199H206.14C208.2 50.2199 208.79 49.5999 209.52 48.6899C209.73 48.6899 210.4 48.6899 210.4 48.9499C210.4 49.1899 209.81 51.5899 209.75 53.7099C209.75 54.0299 209.66 54.6499 209.51 54.6499C209.24 54.6499 208.57 54.5099 208.57 54.3599L208.45 52.8899C208.33 51.3899 207.63 51.3599 206.42 51.3599H202.36V67.8199L202.38 67.8299Z" fill="black"/>
<path d="M214.72 53.14C214.72 51.23 213.28 51.02 211.58 51.02C211.46 51.02 211.46 50.87 211.46 50.76V50.44C211.46 50.18 211.96 50.15 212.99 50.15C214.16 50.15 215.49 50.29 216.73 50.29C217.9 50.29 219.08 50.15 220.25 50.15H226.46C226.69 50.15 226.72 50.41 226.72 50.74V54.33C226.72 54.45 226.66 54.57 226.51 54.57C226.28 54.57 225.81 54.6 225.78 54.25L225.69 53.34C225.51 51.46 224.22 51.14 222.58 51.14H219.55C217.91 51.14 217.38 51.49 217.38 53.73V59.05C217.38 59.14 217.56 59.29 217.62 59.29L221.08 59.17C222.84 59.11 223.35 58.55 223.79 56.99C223.85 56.81 223.94 56.75 224.26 56.75C224.46 56.75 224.61 56.79 224.61 56.93C224.61 57.55 224.44 58.9 224.44 59.87C224.44 61.46 224.61 62.31 224.61 62.81C224.61 62.99 224.32 63.16 224.14 63.16C223.91 63.16 223.7 63.07 223.64 62.78C223.49 61.99 223.49 61.43 223.35 61.02C223.2 60.58 222.84 60.37 221.96 60.34L217.79 60.25C217.38 60.25 217.38 60.39 217.38 60.6V67.6C217.38 69.71 218.94 69.77 220.97 69.77H222.56C224.12 69.77 225.2 69.74 225.94 69.3C226.59 68.92 227.5 67.13 227.82 66.39C228.21 66.39 228.7 66.48 228.7 66.68C228.7 66.77 228.61 67 228.56 67.15L227.74 70.12C227.51 70.91 227.36 70.91 226.98 70.91C223.8 70.91 220.69 70.76 216.43 70.76C215.46 70.76 212.99 70.91 211.49 70.91C211.4 70.91 211.31 70.62 211.31 70.44C211.31 70.21 211.37 69.94 211.49 69.94C214.04 69.82 214.75 69.56 214.75 66.85V53.15L214.72 53.14Z" fill="black"/>
<path d="M233.17 53.32C233.17 51.85 233.11 51.12 231.26 51.12H230.05C229.88 51.12 229.85 50.8 229.85 50.56C229.85 50.41 229.94 50.15 230.05 50.15C231.76 50.15 233.5 50.24 235.2 50.24C236.55 50.24 237.88 50.15 239.23 50.15C242.23 50.15 245.17 52.15 245.17 55.23C245.17 57.9 242.73 59.7 240.44 60.05V60.11C241.59 60.37 242.79 62.52 243.08 62.99L246.31 67.93C247.33 69.49 248.01 69.78 249.78 69.87L249.95 70.04V70.6C249.95 70.86 249.75 70.89 249.63 70.89C249.01 70.89 248.1 70.8 247.66 70.8C246.95 70.8 246.25 70.89 245.55 70.89C244.85 70.89 243.55 68.92 241.82 65.83C239.91 62.45 238.79 60.6 236.85 60.6C236.62 60.6 236.26 60.6 235.83 60.66V67.86C235.83 68.92 235.83 69.92 237.3 69.92C238.41 69.92 238.92 69.92 238.92 70.15C238.92 70.71 238.83 70.89 238.38 70.89C236.85 70.89 235.59 70.74 234.33 70.74C233.83 70.74 230.57 70.89 230.16 70.89C229.98 70.89 229.92 70.51 229.92 70.27C229.92 70.01 230.04 69.95 230.62 69.92C232.65 69.83 233.18 69.54 233.18 67.51V53.31L233.17 53.32ZM235.81 59.58C236.19 59.61 236.55 59.64 236.93 59.64C239.28 59.64 242.22 58.82 242.22 55.35C242.22 52.77 240.46 51.09 237.87 51.09C235.87 51.09 235.81 51.56 235.81 52.44V59.58Z" fill="black"/>
<path d="M254.25 53.38C254.25 52.26 254.02 51.12 252.93 51.12C252.58 51.12 251.64 51.24 251.08 51.24C250.96 51.24 250.96 50.8 250.96 50.65C250.96 50.47 250.96 50.38 251.46 50.27C253.43 49.86 258.13 49.53 260.66 49.53C262.28 49.53 263.81 49.68 265.25 50.06C269.24 51.15 272.98 54.71 272.98 60.12C272.98 67.41 266.89 70.7 261.31 70.7C258.52 70.7 257.05 70.58 255.58 70.58C254.11 70.58 252.64 70.67 251.17 70.7C251.05 70.7 251.02 70.44 251.02 70.23C251.02 70.02 251.17 69.73 251.28 69.73C252.22 69.61 252.98 69.55 253.52 69.2C253.96 68.91 254.25 68.43 254.25 67.5V53.39V53.38ZM256.9 66.5C256.9 69.73 260.22 69.73 261.51 69.73C265.54 69.73 269.83 66.41 269.83 60.26C269.83 55.03 267.01 52.44 264.98 51.27C263.57 50.65 261.72 50.51 260.46 50.51C258.05 50.51 256.91 50.68 256.91 52.57V66.5H256.9Z" fill="black"/>
<path d="M278.2 62.6699L276.91 66.8399C276.67 67.5999 276.56 68.2799 276.56 68.7499C276.56 69.7199 277.94 69.9299 278.74 69.9299C279 69.9299 279.06 70.1099 279.06 70.4899C279.06 70.7799 279.03 70.8999 278.83 70.8999C278.15 70.8999 276.01 70.7499 275.21 70.7499C274.41 70.7499 273.18 70.8999 272.3 70.8999C271.71 70.8999 271.71 70.8099 271.71 70.4299V70.1099C271.71 69.9599 271.98 69.8999 272.68 69.8399C274.21 69.6899 274.41 69.3999 274.97 67.7799L280.79 50.8499C281.38 50.3499 282 49.6699 282.73 49.4399L290.11 68.0499C290.61 69.2799 291.14 69.8999 292.84 69.8999C293.17 69.8999 293.22 70.2599 293.22 70.5799C293.22 70.8999 293.02 70.9099 292.66 70.9099C292.19 70.9099 290.31 70.7599 289.16 70.7599C288.01 70.7599 286.81 70.8199 285.63 70.9099C285.19 70.9099 285.16 70.8199 285.16 70.4099C285.16 70.0899 285.34 69.9399 285.75 69.9399C286.19 69.9399 287.64 69.8499 287.64 69.1399C287.64 68.9099 287.52 68.4399 287.11 67.4099L285.23 62.6799H278.2V62.6699ZM284.7 61.5199L281.44 53.1099H281.38L278.6 61.5199H284.71H284.7Z" fill="black"/>
<path d="M313.64 50.14C314.55 50.14 315.49 50.22 316.43 50.22C317.16 50.22 317.93 50.14 318.66 50.14C319.1 50.14 319.19 50.25 319.19 50.35V50.82C319.19 51.03 319.1 51.17 318.99 51.17C318.78 51.17 318.45 51.11 318.1 51.11C316.4 51.11 316.4 51.96 316.4 53.88C316.4 55.55 316.72 66.55 316.72 68.17C316.72 68.99 317.13 69.93 318.4 69.93C319.57 69.93 319.72 69.99 319.72 70.25C319.72 70.6 319.54 70.9 319.45 70.9C317.89 70.9 316.66 70.75 315.42 70.75C314.18 70.75 312.92 70.9 311.65 70.9C311.44 70.9 311.42 70.78 311.42 70.61V70.31C311.42 70.02 311.68 69.93 313.03 69.93C313.62 69.93 314.15 69.22 314.15 68.2C314.15 65.03 314.04 58.18 313.92 53.15C313.8 53.12 313.83 53.12 313.83 53.12C312.18 56.5 310.04 61.41 309.04 64.03L306.28 71.29C306.25 71.38 306.16 71.46 306.01 71.46C305.86 71.46 305.75 71.31 305.65 70.9C305.48 70.16 305.21 69.46 304.92 68.75L299.37 55.23C299.16 54.73 298.99 54.38 298.87 54.38C298.75 54.38 298.75 54.97 298.75 55.29C298.75 57.61 298.39 66.49 298.39 67.93C298.39 69.19 298.39 69.93 300.98 69.93C301.16 69.93 301.18 70.07 301.18 70.43C301.18 70.55 301.15 70.9 301.03 70.9C300.62 70.9 299.18 70.75 297.59 70.75C295.91 70.75 294.27 70.9 293.86 70.9C293.77 70.9 293.69 70.81 293.69 70.66V70.22C293.69 69.96 293.92 69.93 294.27 69.93C296.68 69.93 297.04 69.19 297.04 66.64C297.04 65.2 297.54 54.38 297.54 53.32C297.54 51.76 296.78 51.12 294.13 51.12C294.05 51.12 293.98 50.98 293.98 50.8V50.42C293.98 50.27 294.07 50.16 294.22 50.16C295.34 50.16 296.39 50.31 297.58 50.31C298.31 50.31 299.07 50.16 299.81 50.16C300.02 50.16 300.22 50.63 300.37 51.01L306.72 66.21H306.87L313.63 50.16L313.64 50.14Z" fill="black"/>
</g>
<defs>
<clipPath id="clip0_546_122">
<rect width="319.73" height="71.45" fill="white"/>
</clipPath>
</defs>
</svg>
