<?xml version="1.0" standalone="no"?>
<!DOCTYPE svg PUBLIC "-//W3C//DTD SVG 20010904//EN"
 "http://www.w3.org/TR/2001/REC-SVG-20010904/DTD/svg10.dtd">
<svg version="1.0" xmlns="http://www.w3.org/2000/svg"
 width="601.000000pt" height="601.000000pt" viewBox="0 0 601.000000 601.000000"
 preserveAspectRatio="xMidYMid meet">
<metadata>
Created by potrace 1.11, written by Peter Selinger 2001-2013
</metadata>
<g transform="translate(0.000000,601.000000) scale(0.100000,-0.100000)"
fill="#000000" stroke="none">
<path d="M100 3005 l0 -2905 2910 0 2910 0 -2 2903 -3 2902 -2907 3 -2908 2 0
-2905z m2685 2465 l210 -210 211 211 211 210 122 -123 121 -123 -211 -209
-212 -208 224 -224 224 -224 -123 -122 -122 -123 -225 225 -225 225 -225 -225
-225 -225 -120 120 -120 120 225 225 225 225 -209 215 -209 215 116 118 c64
64 119 117 122 117 3 0 100 -95 215 -210z m1531 -1402 c-26 -398 -34 -1166
-16 -1518 9 -174 30 -425 46 -565 l6 -50 -238 -69 c-132 -38 -245 -71 -251
-74 -10 -3 -13 55 -15 257 l-3 261 -130 -122 c-71 -67 -162 -143 -202 -169
-265 -173 -727 -250 -1072 -179 -301 61 -483 157 -618 325 -123 153 -136 223
-134 705 1 230 -6 508 -19 790 -11 239 -20 447 -20 461 l0 27 228 4 c125 3
229 3 231 1 2 -1 7 -326 11 -720 7 -687 8 -722 29 -818 27 -120 62 -202 104
-243 78 -75 213 -132 402 -169 111 -22 438 -24 560 -5 285 46 469 142 541 283
100 198 138 865 82 1453 -7 72 -12 149 -13 171 l0 40 220 11 c121 6 233 11
249 12 l29 2 -7 -102z m-1531 -288 l210 -210 210 210 210 210 123 -123 122
-122 -210 -210 -210 -210 225 -225 225 -225 -123 -123 -122 -122 -225 225
-225 225 -228 -227 -228 -228 -120 124 -120 124 225 226 226 226 -212 212
-213 213 120 120 c66 66 122 120 125 120 3 0 100 -95 215 -210z m0 -2260 l210
-210 210 210 210 210 123 -123 122 -122 -210 -210 -210 -210 220 -220 c121
-121 220 -225 220 -230 0 -13 -222 -235 -235 -235 -5 0 -109 99 -230 220
l-220 219 -231 -224 -231 -224 -119 120 -119 119 228 228 227 227 -212 212
-213 213 120 120 c66 66 122 120 125 120 3 0 100 -95 215 -210z"/>
</g>
</svg>
